<svg id="SvgjsSvg1001" width="288" height="288" xmlns="http://www.w3.org/2000/svg" version="1.1" xmlns:xlink="http://www.w3.org/1999/xlink" xmlns:svgjs="http://svgjs.com/svgjs"><defs id="SvgjsDefs1002"></defs><g id="SvgjsG1008"><svg xmlns="http://www.w3.org/2000/svg" viewBox="0 0 64 64" width="288" height="288"><g><path fill="none" stroke="#9e6c72" stroke-linejoin="round" stroke-width="4" d="M39,10V6.44A2.44,2.44,0,0,0,36.56,4H26.44A2.44,2.44,0,0,0,24,6.44V10" class="svgStroke colorStroke54596e-1 selectable"></path><line x1="43" x2="59" y1="62" y2="62" fill="none" stroke="#e04965" stroke-linecap="round" stroke-linejoin="round" stroke-width="2" class="svgStroke colorStroke757575-2 selectable"></line><path fill="#aaaaaa" stroke="#aaaaaa" stroke-linecap="round" stroke-linejoin="round" stroke-width="2" d="M14,19H49a0,0,0,0,1,0,0V58.38A3.62,3.62,0,0,1,45.38,62H17.62A3.62,3.62,0,0,1,14,58.38V19A0,0,0,0,1,14,19Z" class="svgShape coloraaaaaa-3 svgStroke colorStrokeaaaaaa-3 selectable"></path><path fill="#d94862" stroke="#d94862" stroke-linecap="round" stroke-linejoin="round" stroke-width="2" d="M14.92,10H48.08A3.92,3.92,0,0,1,52,13.92V19a0,0,0,0,1,0,0H11a0,0,0,0,1,0,0V13.92A3.92,3.92,0,0,1,14.92,10Z" class="svgShape color757575-4 svgStroke colorStroke757575-4 selectable"></path><circle cx="23" cy="31" r="2" fill="#4f4f4f" class="svgShape color4f4f4f-5 selectable"></circle><circle cx="40" cy="31" r="2" fill="#4f4f4f" class="svgShape color4f4f4f-6 selectable"></circle><line x1="28" x2="35" y1="37" y2="37" fill="#9e6c72" stroke="#4f4f4f" stroke-linecap="round" stroke-linejoin="round" stroke-width="2" class="svgShape colorfff35f-7 svgStroke colorStroke4f4f4f-7 selectable"></line><rect width="35" height="4" x="14" y="21" fill="#9e6c72" stroke="#9e6c72" stroke-linecap="round" stroke-linejoin="round" stroke-width="2" opacity=".1" class="svgShape color5b3b63-8 svgStroke colorStroke5b3b63-8 selectable"></rect></g></svg></g></svg>