<svg id="SvgjsSvg1024" width="288" height="288" xmlns="http://www.w3.org/2000/svg" version="1.1" xmlns:xlink="http://www.w3.org/1999/xlink" xmlns:svgjs="http://svgjs.com/svgjs"><circle id="SvgjsCircle1030" r="144" cx="144" cy="144" transform="matrix(0.7916,0,0,0.7916,30.009600000000006,30.009600000000006)" fill="#fffefe"></circle><defs id="SvgjsDefs1025"></defs><g id="SvgjsG1026" transform="matrix(0.4652,0,0,0.4652,77.0112020401001,76.97269413070678)"><svg xmlns="http://www.w3.org/2000/svg" viewBox="0 0 20 20" width="288" height="288"><path d="m12.84,3.02c-.33-1.01-1.19-2.02-2.84-2.02s-2.51,1-2.84,2.02c-2.23.09-5.16.57-5.16,2.52,0,1.41,1.11,2.29,2.07,2.72l.83,7.81c.12,1.15.88,2.13,1.95,2.48.89.29,1.95.44,3.15.44s2.26-.15,3.15-.44c1.07-.36,1.83-1.33,1.95-2.48l.83-7.82c.96-.43,2.07-1.31,2.07-2.72,0-1.95-2.93-2.43-5.16-2.52Zm-3.34,10.98c0,.55-.45,1-1,1s-1-.45-1-1v-5c0-.55.45-1,1-1s1,.45,1,1v5Zm3,0c0,.55-.45,1-1,1s-1-.45-1-1v-5c0-.55.45-1,1-1s1,.45,1,1v5Z" fill="#9e1a50" class="svgShape color000000-0 selectable"></path></svg></g></svg>